<svg width="12" height="9" viewBox="0 0 12 9" fill="none" xmlns="http://www.w3.org/2000/svg">
<path d="M11.9898 8.67795C11.9493 5.34211 9.07366 2.6254 5.49553 2.50406V0.749977C5.49553 0.336422 5.15939 0 4.74614 0C4.56026 0 4.38073 0.0712968 4.24167 0.200672C4.24167 0.200672 1.08164 3.12635 0.172711 4.03868C0.0614766 4.15099 0 4.31456 0 4.49986C0 4.68516 0.0614766 4.84873 0.172711 4.96127C1.08164 5.87334 4.24167 8.79905 4.24167 8.79905C4.38073 8.92844 4.56026 8.99972 4.74614 8.99972C5.15937 8.99972 5.49553 8.6633 5.49553 8.24974V6.50152C9.0927 6.55205 11.4907 7.68752 11.4907 8.74973C11.4907 8.88792 11.6024 8.99972 11.7405 8.99972C11.7444 9.00021 11.7483 8.99995 11.7502 8.99972C11.8883 8.99972 12 8.8879 12 8.74973C12 8.72482 11.9966 8.70066 11.9898 8.67795Z" fill="#F7D631"/>
</svg>
