<svg width="36" height="35" viewBox="0 0 36 35" fill="none" xmlns="http://www.w3.org/2000/svg">
<g id="Instagram">
<g id="Instagram_2">
<rect id="Rectangle" width="36" height="34.1071" rx="17.0535" fill="#363636"/>
<path id="Vector" d="M14.2511 17.0535C14.2511 15.0914 15.9295 13.5004 18.0005 13.5004C20.0715 13.5004 21.7508 15.0914 21.7508 17.0535C21.7508 19.0156 20.0715 20.6066 18.0005 20.6066C15.9295 20.6066 14.2511 19.0156 14.2511 17.0535ZM12.2237 17.0535C12.2237 20.0763 14.81 22.5265 18.0005 22.5265C21.191 22.5265 23.7772 20.0763 23.7772 17.0535C23.7772 14.0308 21.191 11.5805 18.0005 11.5805C14.81 11.5805 12.2237 14.0308 12.2237 17.0535ZM22.6559 11.3635C22.6558 11.6165 22.7349 11.8638 22.8831 12.0742C23.0314 12.2846 23.2422 12.4486 23.4888 12.5455C23.7354 12.6424 24.0069 12.6678 24.2688 12.6186C24.5307 12.5693 24.7713 12.4476 24.9601 12.2688C25.149 12.09 25.2777 11.8622 25.3299 11.6141C25.3821 11.366 25.3554 11.1088 25.2534 10.8751C25.1513 10.6413 24.9783 10.4415 24.7564 10.3009C24.5344 10.1603 24.2735 10.0851 24.0065 10.085H24.0059C23.648 10.0852 23.3048 10.2199 23.0517 10.4596C22.7986 10.6994 22.6562 11.0245 22.6559 11.3635ZM13.4555 25.7293C12.3587 25.6819 11.7625 25.5089 11.3663 25.3626C10.8411 25.1689 10.4663 24.9382 10.0723 24.5654C9.67828 24.1926 9.43438 23.8379 9.2308 23.3402C9.07636 22.9651 8.89366 22.4001 8.8438 21.3609C8.78926 20.2374 8.77837 19.8999 8.77837 17.0536C8.77837 14.2073 8.79016 13.8708 8.8438 12.7463C8.89375 11.7072 9.0778 11.1433 9.2308 10.767C9.43528 10.2694 9.67882 9.91433 10.0723 9.54103C10.4658 9.16773 10.8402 8.93665 11.3663 8.74378C11.7623 8.59746 12.3587 8.42437 13.4555 8.37713C14.6413 8.32546 14.9975 8.31514 18.0005 8.31514C21.0034 8.31514 21.36 8.32631 22.5468 8.37713C23.6437 8.42445 24.2388 8.59882 24.636 8.74378C25.1612 8.93665 25.536 9.16824 25.93 9.54103C26.324 9.91382 26.567 10.2694 26.7715 10.767C26.926 11.1422 27.1087 11.7072 27.1585 12.7463C27.2131 13.8708 27.224 14.2073 27.224 17.0536C27.224 19.8999 27.2131 20.2365 27.1585 21.3609C27.1086 22.4001 26.925 22.9649 26.7715 23.3402C26.567 23.8379 26.3235 24.1929 25.93 24.5654C25.5365 24.9378 25.1612 25.1689 24.636 25.3626C24.24 25.5089 23.6437 25.682 22.5468 25.7293C21.361 25.7809 21.0048 25.7913 18.0005 25.7913C14.9962 25.7913 14.641 25.7809 13.4555 25.7293ZM13.3623 6.45963C12.1647 6.5113 11.3463 6.69122 10.6316 6.95469C9.89149 7.22678 9.26491 7.59181 8.63878 8.18408C8.01265 8.77635 7.62835 9.37092 7.34116 10.0722C7.06306 10.7497 6.87316 11.5246 6.81862 12.6593C6.76318 13.7957 6.75049 14.159 6.75049 17.0535C6.75049 19.948 6.76318 20.3114 6.81862 21.4478C6.87316 22.5826 7.06306 23.3574 7.34116 24.0349C7.62835 24.7357 8.01274 25.331 8.63878 25.923C9.26482 26.515 9.89149 26.8795 10.6316 27.1524C11.3477 27.4159 12.1647 27.5958 13.3623 27.6475C14.5625 27.6991 14.9453 27.712 18.0005 27.712C21.0556 27.712 21.4391 27.7 22.6386 27.6475C23.8364 27.5958 24.6542 27.4159 25.3693 27.1524C26.109 26.8795 26.7361 26.5153 27.3622 25.923C27.9883 25.3307 28.3718 24.7357 28.6598 24.0349C28.9379 23.3574 29.1287 22.5825 29.1824 21.4478C29.2369 20.3105 29.2496 19.948 29.2496 17.0535C29.2496 14.159 29.2369 13.7957 29.1824 12.6593C29.1278 11.5245 28.9379 10.7493 28.6598 10.0722C28.3718 9.37135 27.9873 8.77729 27.3622 8.18408C26.7371 7.59087 26.109 7.22678 25.3702 6.95469C24.6542 6.69122 23.8363 6.51045 22.6395 6.45963C21.44 6.40796 21.0565 6.39508 18.0014 6.39508C14.9462 6.39508 14.5625 6.4071 13.3623 6.45963Z" fill="white"/>
</g>
</g>
</svg>
