<svg width="72" height="19" viewBox="0 0 72 19" fill="none" xmlns="http://www.w3.org/2000/svg">
<path d="M72 14.3113H46.584V18.5568H72V14.3113Z" fill="#F7D631"/>
<path d="M48.4117 17.6076L48.8701 16.8481L47.8877 15.4V15.3114H48.7204L49.2725 16.1848H49.2912L49.8058 15.3114H50.6136V15.4025L49.2288 17.681H48.4241L48.4117 17.6076Z" fill="#363636"/>
<path d="M54.5809 17.6734H53.8199V15.8633H52.9248V17.6734H52.1606V15.3114H54.5871L54.5809 17.6734Z" fill="#363636"/>
<path d="M55.1484 16.4913C55.1484 14.8533 58.1395 14.8533 58.1395 16.4913C58.1395 18.1293 55.1484 18.1318 55.1484 16.4913ZM57.3785 16.4913C57.385 16.4101 57.3709 16.3286 57.3371 16.252C57.3033 16.1754 57.2505 16.1052 57.182 16.0458C57.1134 15.9864 57.0306 15.939 56.9386 15.9066C56.8466 15.8743 56.7474 15.8576 56.6471 15.8576C56.5468 15.8576 56.4476 15.8743 56.3556 15.9066C56.2636 15.939 56.1807 15.9864 56.1122 16.0458C56.0436 16.1052 55.9908 16.1754 55.957 16.252C55.9232 16.3286 55.9092 16.4101 55.9157 16.4913C55.9092 16.5725 55.9232 16.654 55.957 16.7306C55.9908 16.8072 56.0436 16.8774 56.1122 16.9368C56.1807 16.9962 56.2636 17.0436 56.3556 17.0759C56.4476 17.1083 56.5468 17.125 56.6471 17.125C56.7474 17.125 56.8466 17.1083 56.9386 17.0759C57.0306 17.0436 57.1134 16.9962 57.182 16.9368C57.2505 16.8774 57.3033 16.8072 57.3371 16.7306C57.3709 16.654 57.385 16.5725 57.3785 16.4913Z" fill="#363636"/>
<path d="M59.0659 17.6734H58.3361V17.5898L59.6491 15.2784H59.961L61.2772 17.5898V17.6784H60.5473L59.7988 16.2911L59.0659 17.6734Z" fill="#363636"/>
<path d="M61.2522 15.8456V15.3114H63.4198V15.8532H62.7087V17.681H61.9695V15.8532L61.2522 15.8456Z" fill="#363636"/>
<path d="M65.4004 17.3746H64.2495L64.0811 17.6734H63.3419V17.5898L64.655 15.2784H64.9669L66.2831 17.5898V17.6784H65.5532L65.4004 17.3746ZM64.8234 16.2354L64.4928 16.8582H65.1602L64.8234 16.2354Z" fill="#363636"/>
<path d="M68.6004 16.4405C68.7114 16.4838 68.8041 16.5529 68.8668 16.6389C68.9295 16.725 68.9595 16.8242 68.9528 16.924C68.9628 17.0241 68.9463 17.1247 68.9044 17.2191C68.8625 17.3136 68.7962 17.3997 68.7099 17.4716C68.6237 17.5435 68.5194 17.5997 68.4043 17.6362C68.2891 17.6728 68.1656 17.6889 68.0421 17.6835H66.676V15.3113H67.9236C68.0426 15.31 68.1607 15.3279 68.2712 15.3639C68.3816 15.4 68.4821 15.4534 68.5668 15.5213C68.6516 15.5891 68.7188 15.67 68.7648 15.7591C68.8107 15.8482 68.8343 15.9439 68.8343 16.0405C68.8311 16.1166 68.8087 16.1913 68.7684 16.2601C68.7282 16.3289 68.671 16.3903 68.6004 16.4405ZM67.3965 15.8455V16.2278H67.8674C67.9252 16.2224 67.9785 16.1999 68.0172 16.1647C68.0559 16.1294 68.0773 16.0839 68.0773 16.0367C68.0773 15.9894 68.0559 15.9439 68.0172 15.9086C67.9785 15.8734 67.9252 15.8509 67.8674 15.8455H67.3965ZM67.3965 16.7316V17.1341H67.9922C68.3041 17.1341 68.2885 16.7316 67.9922 16.7316H67.3965Z" fill="#363636"/>
<path d="M70.7711 17.1418V17.6734H69.2927V17.1418H69.6639V15.8329H69.3208V15.3114H70.743V15.8405H70.3906V17.1494L70.7711 17.1418Z" fill="#363636"/>
<path d="M11.0971 2.52143V10.0531H13.4955C13.6 10.0527 13.7042 10.0459 13.8074 10.0328C13.9186 10.0151 14.0188 9.96679 14.0912 9.89609C14.2027 9.72973 14.2515 9.54047 14.2316 9.35179V2.51636H18.2176V11.0353C18.2145 11.2214 18.1852 11.4066 18.1302 11.5872C18.0662 11.8 17.925 11.9923 17.7248 12.1391C17.5493 12.2644 17.3461 12.3615 17.1259 12.4252C16.8539 12.5044 16.5665 12.543 16.2776 12.5391H1.94308C1.63868 12.548 1.33522 12.5067 1.05107 12.4176C0.851862 12.3522 0.669018 12.2578 0.511501 12.1391C0.307401 11.999 0.16057 11.8118 0.0904511 11.6024C0.0324496 11.417 0.00208015 11.2266 0 11.0353V2.52143H3.98909V9.35686C3.96921 9.54554 4.01801 9.7348 4.12944 9.90116C4.20022 9.97217 4.29964 10.0206 4.41014 10.0379C4.51333 10.051 4.61759 10.0578 4.72203 10.0581H7.12359V2.52143H11.0971Z" fill="#363636"/>
<path d="M42.1208 12.4228L44.0982 9.5747L39.1578 2.40002H43.6023L46.1785 6.66837L48.7734 2.40002H53.1118L46.4623 12.4228H42.1208Z" fill="#363636"/>
<path d="M56.5801 12.4228V10.6H54.6464V12.4228H52.4631V7.6405H54.6464V9.31898H56.5801V7.6405H58.7634V12.4228H56.5801Z" fill="#363636"/>
<path d="M63.5946 7.64051C63.905 7.63334 64.214 7.67815 64.5022 7.77216C64.7047 7.83902 64.8907 7.93508 65.0511 8.0557C65.1681 8.14977 65.266 8.25828 65.3412 8.37722C65.4137 8.48921 65.4712 8.60718 65.5127 8.72912C65.5525 8.84412 65.5786 8.96197 65.5907 9.08102C65.5907 9.19748 65.6063 9.3038 65.6063 9.4V11.4051C65.6067 11.5367 65.5921 11.668 65.5626 11.7975C65.5281 11.9389 65.4436 12.0691 65.3193 12.1722C65.1932 12.2852 65.0242 12.361 64.839 12.3873C64.667 12.4115 64.4927 12.4234 64.3182 12.4228H60.85C60.6619 12.4236 60.4742 12.4117 60.2885 12.3873C60.0926 12.3611 59.9116 12.2859 59.7708 12.1722C59.6597 12.0873 59.5697 11.9859 59.5057 11.8734C59.4383 11.76 59.3891 11.64 59.3591 11.5165C59.3314 11.396 59.3127 11.2742 59.303 11.1519C59.303 11.0304 59.303 10.9241 59.303 10.8279C59.303 10.7316 59.303 10.6177 59.3186 10.5063C59.3305 10.3953 59.3535 10.2853 59.3872 10.1772C59.418 10.0696 59.4684 9.96636 59.5369 9.87089C59.6058 9.77119 59.7005 9.68482 59.8145 9.61773C59.9635 9.52037 60.1426 9.45817 60.3322 9.43797C60.5069 9.41886 60.683 9.40956 60.8593 9.41013H63.4386V9.33671C63.4377 9.28742 63.4314 9.23829 63.4199 9.18988C63.4087 9.12815 63.3763 9.07023 63.3264 9.02279C63.2906 8.98008 63.2445 8.94369 63.1909 8.91585C63.1372 8.888 63.0773 8.86926 63.0145 8.86076C62.8974 8.84195 62.7783 8.83262 62.6589 8.83292H59.6928V7.64051H63.5946ZM61.8823 10.5468C61.8321 10.5483 61.7821 10.5525 61.7326 10.5595C61.6692 10.5702 61.6102 10.5937 61.5611 10.6278C61.525 10.6559 61.5001 10.6921 61.4893 10.7316C61.4771 10.7714 61.4708 10.8122 61.4706 10.8532C61.4707 10.89 61.477 10.9266 61.4893 10.962C61.5009 10.9999 61.5258 11.0342 61.5611 11.0608C61.6002 11.0914 61.6486 11.1133 61.7014 11.124C61.7532 11.136 61.8067 11.1419 61.8605 11.1418H62.9958C63.0549 11.1455 63.1144 11.1455 63.1735 11.1418C63.2259 11.1351 63.2753 11.1176 63.317 11.0911C63.3405 11.0793 63.3608 11.0638 63.3769 11.0456C63.393 11.0273 63.4044 11.0067 63.4106 10.9848C63.4228 10.9433 63.429 10.9009 63.4293 10.8582V10.5595L61.8823 10.5468Z" fill="#363636"/>
<path d="M68.4632 12.4228C68.3246 12.4227 68.1861 12.4168 68.0483 12.4051C67.8876 12.3925 67.7288 12.3671 67.5743 12.3292C67.4067 12.2888 67.2463 12.231 67.0971 12.157C66.9328 12.077 66.7862 11.9752 66.6635 11.8558C66.4343 11.6405 66.284 11.3774 66.23 11.0963C66.1672 10.768 66.1369 10.4361 66.1396 10.1039C66.1396 9.92917 66.1396 9.75195 66.1583 9.57474C66.1673 9.40006 66.1955 9.22638 66.2425 9.05576C66.2866 8.88885 66.3514 8.726 66.4359 8.56968C66.5223 8.41064 66.6451 8.26633 66.7977 8.14436C67.0147 7.95807 67.2893 7.82254 67.593 7.75196C67.913 7.68096 68.2436 7.64603 68.5754 7.64816H71.7442V8.85829H69.586C69.4271 8.85564 69.2686 8.87097 69.115 8.90386C69.0017 8.92879 68.8957 8.97183 68.8031 9.03044C68.7195 9.07984 68.6494 9.14277 68.5973 9.21525C68.5445 9.28413 68.5026 9.35813 68.4725 9.4355C68.4352 9.53291 68.4091 9.63291 68.3945 9.73423C68.3804 9.84526 68.3731 9.95679 68.3727 10.0684C68.3618 10.2667 68.3849 10.4652 68.4413 10.6583C68.4687 10.7401 68.5053 10.8198 68.5505 10.8963C68.6105 10.9817 68.6978 11.0526 68.8031 11.1013C68.901 11.1445 69.006 11.1761 69.115 11.195C69.2176 11.2124 69.3221 11.2217 69.4269 11.2228H71.8721V12.4304L68.4632 12.4228Z" fill="#363636"/>
<path d="M29.1586 14.7949C34.1918 14.7949 38.2721 11.483 38.2721 7.39746C38.2721 3.31196 34.1918 0 29.1586 0C24.1254 0 20.0452 3.31196 20.0452 7.39746C20.0452 11.483 24.1254 14.7949 29.1586 14.7949Z" fill="#F7D631"/>
<path d="M35.0751 9.23532L30.3968 7.38216L35.0502 5.50621L35.8081 5.19735L35.7332 5.06571C35.6708 4.94925 35.5991 4.8328 35.5149 4.70875L35.4307 4.57963C34.6698 3.50627 33.4932 2.66717 32.084 2.1929C30.6747 1.71864 29.1118 1.63582 27.6385 1.95733C26.1652 2.27885 24.8642 2.98667 23.9379 3.97062C23.0116 4.95458 22.512 6.15948 22.5169 7.39782C22.5217 8.63616 23.0308 9.83845 23.9647 10.8176C24.8987 11.7968 26.2053 12.4978 27.681 12.8117C29.1568 13.1256 30.719 13.0347 32.1246 12.5532C33.5301 12.0717 34.7001 11.2265 35.4525 10.1492L35.5367 10.0201C35.6159 9.90422 35.6878 9.78508 35.7519 9.66317L35.8268 9.52899L35.0751 9.23532ZM34.6946 9.85304C34.027 10.7899 32.9977 11.5222 31.7659 11.9365C30.5341 12.3509 29.1684 12.4242 27.8801 12.1453C26.5917 11.8664 25.4525 11.2506 24.6386 10.3934C23.8246 9.53608 23.3813 8.48501 23.3773 7.4027C23.3732 6.32038 23.8085 5.26712 24.616 4.4058C25.4234 3.54449 26.558 2.92312 27.8442 2.63777C29.1304 2.35243 30.4966 2.41901 31.7315 2.82723C32.9664 3.23544 34.0012 3.96254 34.6759 4.89609L28.488 7.38975L34.6946 9.85304Z" fill="#363636"/>
<path d="M29.0589 5.61527C29.3982 5.61527 29.6733 5.39198 29.6733 5.11653C29.6733 4.84109 29.3982 4.6178 29.0589 4.6178C28.7195 4.6178 28.4445 4.84109 28.4445 5.11653C28.4445 5.39198 28.7195 5.61527 29.0589 5.61527Z" fill="#363636"/>
</svg>
