<svg width="170" height="48" viewBox="0 0 170 48" fill="none" xmlns="http://www.w3.org/2000/svg">
<path d="M170 37.0598H109.99V47.8976H170V37.0598Z" fill="#F7D631"/>
<path d="M114.305 45.4741L115.388 43.5354L113.068 39.8387V39.6125H115.034L116.338 41.8422H116.382L117.597 39.6125H119.504V39.8452L116.235 45.6615H114.335L114.305 45.4741Z" fill="#363636"/>
<path d="M128.872 45.6422H127.075V41.0214H124.961V45.6422H123.157V39.6125H128.886L128.872 45.6422Z" fill="#363636"/>
<path d="M130.212 42.6243C130.212 38.443 137.274 38.443 137.274 42.6243C137.274 46.8056 130.212 46.812 130.212 42.6243ZM135.477 42.6243C135.493 42.4169 135.459 42.209 135.38 42.0134C135.3 41.8178 135.175 41.6386 135.013 41.487C134.851 41.3353 134.656 41.2144 134.439 41.1318C134.221 41.0492 133.987 41.0065 133.75 41.0065C133.513 41.0065 133.279 41.0492 133.062 41.1318C132.845 41.2144 132.649 41.3353 132.487 41.487C132.325 41.6386 132.201 41.8178 132.121 42.0134C132.041 42.209 132.008 42.4169 132.023 42.6243C132.008 42.8316 132.041 43.0395 132.121 43.2351C132.201 43.4308 132.325 43.6099 132.487 43.7616C132.649 43.9132 132.845 44.0341 133.062 44.1167C133.279 44.1994 133.513 44.242 133.75 44.242C133.987 44.242 134.221 44.1994 134.439 44.1167C134.656 44.0341 134.851 43.9132 135.013 43.7616C135.175 43.6099 135.3 43.4308 135.38 43.2351C135.459 43.0395 135.493 42.8316 135.477 42.6243Z" fill="#363636"/>
<path d="M139.461 45.6422H137.738V45.4289L140.838 39.5286H141.575L144.682 45.4289V45.6551H142.959L141.192 42.1136L139.461 45.6422Z" fill="#363636"/>
<path d="M144.623 40.9761V39.6125H149.741V40.9956H148.062V45.6615H146.317V40.9956L144.623 40.9761Z" fill="#363636"/>
<path d="M154.418 44.8796H151.7L151.303 45.6422H149.557V45.4289L152.658 39.5286H153.394L156.502 45.4289V45.6551H154.778L154.418 44.8796ZM153.055 41.9714L152.275 43.5612H153.851L153.055 41.9714Z" fill="#363636"/>
<path d="M161.973 42.4949C162.235 42.6056 162.454 42.7819 162.602 43.0015C162.75 43.2212 162.821 43.4744 162.805 43.7293C162.829 43.9847 162.79 44.2416 162.691 44.4827C162.592 44.7238 162.435 44.9435 162.232 45.1272C162.028 45.3108 161.782 45.4541 161.51 45.5473C161.238 45.6406 160.946 45.6818 160.655 45.6681H157.429V39.6126H160.375C160.656 39.6092 160.935 39.6548 161.196 39.7468C161.456 39.8388 161.694 39.9753 161.894 40.1485C162.094 40.3217 162.253 40.528 162.361 40.7556C162.47 40.9831 162.525 41.2272 162.525 41.4738C162.518 41.6681 162.465 41.859 162.37 42.0346C162.275 42.2103 162.14 42.3669 161.973 42.4949ZM159.131 40.9762V41.9521H160.243C160.379 41.9383 160.505 41.8809 160.596 41.791C160.688 41.701 160.738 41.5847 160.738 41.4641C160.738 41.3436 160.688 41.2273 160.596 41.1373C160.505 41.0474 160.379 40.99 160.243 40.9762H159.131ZM159.131 43.2381V44.2657H160.537C161.273 44.2657 161.237 43.2381 160.537 43.2381H159.131Z" fill="#363636"/>
<path d="M167.099 44.285V45.6422H163.608V44.285H164.484V40.9438H163.674V39.6125H167.032V40.9632H166.2V44.3044L167.099 44.285Z" fill="#363636"/>
<path d="M26.2014 6.9635V26.1898H31.8644C32.111 26.1888 32.3572 26.1715 32.6008 26.138C32.8633 26.0928 33.0999 25.9695 33.271 25.7891C33.5341 25.3644 33.6493 24.8812 33.6024 24.3996V6.95056H43.0137V28.6972C43.0064 29.1722 42.9372 29.6449 42.8075 30.1061C42.6563 30.6492 42.3228 31.14 41.8502 31.5149C41.4359 31.8348 40.956 32.0827 40.4362 32.2452C39.794 32.4474 39.1154 32.5459 38.4332 32.536H4.58783C3.8691 32.5587 3.15261 32.4532 2.4817 32.2258C2.01134 32.0588 1.57963 31.8179 1.20771 31.5149C0.725807 31.1572 0.379123 30.6794 0.213565 30.1449C0.0766171 29.6716 0.00491146 29.1855 0 28.6972V6.9635H9.41868V24.4125C9.37175 24.8942 9.48697 25.3773 9.75006 25.802C9.91719 25.9833 10.1519 26.1069 10.4128 26.151C10.6565 26.1845 10.9026 26.2017 11.1492 26.2027H16.8196V6.9635H26.2014Z" fill="#363636"/>
<path d="M99.452 32.2388L104.121 24.9683L92.4561 6.65332H102.95L109.033 17.5493L115.16 6.65332H125.403L109.703 32.2388H99.452Z" fill="#363636"/>
<path d="M133.592 32.2387V27.5857H129.026V32.2387H123.871V20.0309H129.026V24.3156H133.592V20.0309H138.747V32.2387H133.592Z" fill="#363636"/>
<path d="M150.154 20.0308C150.887 20.0125 151.616 20.1269 152.297 20.3669C152.775 20.5375 153.214 20.7828 153.593 21.0907C153.869 21.3308 154.1 21.6078 154.278 21.9114C154.449 22.1973 154.585 22.4985 154.683 22.8097C154.777 23.1033 154.838 23.4041 154.867 23.7081C154.867 24.0053 154.904 24.2768 154.904 24.5223V29.6407C154.904 29.9767 154.87 30.312 154.8 30.6424C154.719 31.0035 154.519 31.3358 154.226 31.5989C153.928 31.8876 153.529 32.0809 153.092 32.1482C152.686 32.2099 152.274 32.2401 151.862 32.2387H143.673C143.229 32.2407 142.786 32.2104 142.348 32.1482C141.885 32.0812 141.458 31.8892 141.125 31.5989C140.863 31.3822 140.65 31.1233 140.499 30.8363C140.34 30.5467 140.224 30.2405 140.153 29.9251C140.088 29.6175 140.044 29.3067 140.021 28.9945C140.021 28.6843 140.021 28.4128 140.021 28.1672C140.021 27.9217 140.021 27.6308 140.058 27.3465C140.086 27.0631 140.14 26.7821 140.22 26.5064C140.292 26.2317 140.411 25.9681 140.573 25.7244C140.736 25.4699 140.959 25.2494 141.228 25.0781C141.58 24.8296 142.003 24.6708 142.451 24.6193C142.863 24.5705 143.279 24.5467 143.695 24.5482H149.786V24.3608C149.783 24.2349 149.768 24.1095 149.741 23.9859C149.715 23.8284 149.638 23.6805 149.52 23.5594C149.436 23.4504 149.327 23.3575 149.2 23.2864C149.074 23.2153 148.932 23.1675 148.784 23.1458C148.508 23.0978 148.226 23.074 147.944 23.0747H140.941V20.0308H150.154ZM146.111 27.4499C145.992 27.4536 145.874 27.4644 145.757 27.4822C145.608 27.5095 145.468 27.5695 145.352 27.6567C145.267 27.7284 145.208 27.8206 145.183 27.9217C145.154 28.0231 145.139 28.1273 145.139 28.2319C145.139 28.3258 145.154 28.4193 145.183 28.5098C145.21 28.6065 145.269 28.6941 145.352 28.7618C145.445 28.8401 145.559 28.8958 145.684 28.9234C145.806 28.9538 145.932 28.969 146.059 28.9686H148.74C148.88 28.9782 149.02 28.9782 149.16 28.9686C149.283 28.9515 149.4 28.907 149.498 28.8393C149.554 28.8092 149.602 28.7697 149.64 28.7231C149.678 28.6765 149.705 28.6237 149.719 28.5679C149.748 28.4621 149.763 28.3536 149.763 28.2448V27.4822L146.111 27.4499Z" fill="#363636"/>
<path d="M161.649 32.2387C161.322 32.2385 160.995 32.2234 160.67 32.1935C160.29 32.1614 159.915 32.0965 159.55 31.9996C159.155 31.8967 158.776 31.7489 158.424 31.5602C158.036 31.356 157.69 31.096 157.4 30.7911C156.859 30.2418 156.504 29.57 156.376 28.8523C156.228 28.0143 156.157 27.1671 156.163 26.319C156.163 25.8731 156.163 25.4207 156.207 24.9683C156.228 24.5224 156.295 24.079 156.406 23.6435C156.51 23.2174 156.663 22.8017 156.862 22.4027C157.067 21.9967 157.356 21.6283 157.717 21.3169C158.229 20.8414 158.878 20.4954 159.595 20.3153C160.35 20.134 161.131 20.0448 161.914 20.0503H169.396V23.1394H164.3C163.925 23.1326 163.551 23.1718 163.188 23.2557C162.921 23.3194 162.67 23.4292 162.452 23.5789C162.254 23.705 162.089 23.8656 161.966 24.0506C161.841 24.2265 161.742 24.4154 161.671 24.6129C161.583 24.8615 161.521 25.1168 161.487 25.3755C161.454 25.6589 161.436 25.9436 161.436 26.2285C161.41 26.7346 161.464 27.2414 161.598 27.7343C161.662 27.9433 161.749 28.1466 161.855 28.3418C161.997 28.56 162.203 28.7408 162.452 28.8653C162.683 28.9756 162.931 29.0561 163.188 29.1044C163.43 29.1489 163.677 29.1727 163.925 29.1755H169.698V32.2581L161.649 32.2387Z" fill="#363636"/>
<path d="M68.8468 38.2942C80.7308 38.2942 90.3647 29.8397 90.3647 19.4105C90.3647 8.98127 80.7308 0.526733 68.8468 0.526733C56.9628 0.526733 47.3289 8.98127 47.3289 19.4105C47.3289 29.8397 56.9628 38.2942 68.8468 38.2942Z" fill="#F7D631"/>
<path d="M82.8165 24.1023L71.7704 19.3717L82.7576 14.5829L84.5471 13.7944L84.3703 13.4584C84.2231 13.1611 84.0537 12.8638 83.8548 12.5472L83.656 12.2176C81.8596 9.47757 79.0815 7.33557 75.7541 6.12489C72.4266 4.91422 68.7364 4.7028 65.2578 5.52354C61.7793 6.34428 58.7074 8.15116 56.5203 10.6629C54.3332 13.1747 53.1537 16.2505 53.1651 19.4117C53.1766 22.5728 54.3784 25.6419 56.5837 28.1415C58.7889 30.641 61.8738 32.4307 65.3583 33.232C68.8428 34.0333 72.5313 33.8012 75.85 32.572C79.1686 31.3428 81.9311 29.1853 83.7076 26.4353V26.4353L83.9064 26.1057C84.0935 25.8098 84.2631 25.5057 84.4145 25.1945L84.5912 24.852L82.8165 24.1023ZM81.9181 25.6792C80.3418 28.0708 77.9115 29.94 75.003 30.9977C72.0946 32.0555 68.8701 32.2428 65.8282 31.5307C62.7863 30.8187 60.0964 29.2469 58.1746 27.0585C56.2529 24.8701 55.2062 22.187 55.1966 19.4241C55.1869 16.6612 56.2148 13.9725 58.1213 11.7738C60.0277 9.57514 62.7065 7.98894 65.7434 7.26052C68.7803 6.53211 72.0061 6.70209 74.9218 7.74415C77.8376 8.78622 80.2809 10.6423 81.8739 13.0254L67.2636 19.3911L81.9181 25.6792Z" fill="#363636"/>
<path d="M68.6112 14.8608C69.4124 14.8608 70.0619 14.2908 70.0619 13.5877C70.0619 12.8846 69.4124 12.3146 68.6112 12.3146C67.81 12.3146 67.1605 12.8846 67.1605 13.5877C67.1605 14.2908 67.81 14.8608 68.6112 14.8608Z" fill="#363636"/>
</svg>
