<svg width="0" height="0" class="hidden">
    <symbol viewBox="0 0 36 35" fill="none" xmlns="http://www.w3.org/2000/svg" id="Telegram">
        <rect width="36" height="34.107" rx="17.053" fill="#419FD9"></rect>
        <path fill-rule="evenodd" clip-rule="evenodd" d="M22.002 25.498c1.258.522 1.73-.571 1.73-.571L27.06 9.084c-.026-1.068-1.546-.423-1.546-.423L6.878 15.59s-.891.298-.813.82c.079.52.787.77.787.77l4.691 1.49s1.416 4.394 1.704 5.239c.262.82.498.844.498.844.262.1.498-.074.498-.074l3.04-2.608 4.719 3.427zm.812-13.608s.655-.373.63 0c0 0 .104.05-.237.397-.314.298-7.732 6.605-8.728 7.45a.258.258 0 0 0-.131.223l-.288 2.335c-.053.248-.394.273-.472.05l-1.232-3.825a.356.356 0 0 1 .157-.422l10.301-6.208z"
        fill="#fff"></path>
    </symbol>
    <symbol viewBox="0 0 36 35" fill="none" xmlns="http://www.w3.org/2000/svg" id="Instagram">
        <rect width="36" height="34.107" rx="17.053" fill="#363636"></rect>
        <path d="M14.251 17.053c0-1.962 1.679-3.553 3.75-3.553 2.07 0 3.75 1.591 3.75 3.553 0 1.963-1.68 3.554-3.75 3.554-2.072 0-3.75-1.591-3.75-3.553zm-2.027 0c0 3.023 2.586 5.473 5.776 5.473 3.191 0 5.777-2.45 5.777-5.473 0-3.022-2.586-5.473-5.777-5.473-3.19 0-5.776 2.45-5.776 5.473zm10.432-5.69c0 .254.079.5.227.711.148.21.36.375.606.472.246.096.518.122.78.073.262-.05.502-.171.691-.35a1.26 1.26 0 0 0 .37-.655 1.217 1.217 0 0 0-.077-.739 1.297 1.297 0 0 0-.497-.574 1.404 1.404 0 0 0-.75-.216 1.39 1.39 0 0 0-.954.375c-.253.24-.396.564-.396.903zm-9.2 14.366c-1.097-.047-1.694-.22-2.09-.366a3.52 3.52 0 0 1-1.294-.798 3.277 3.277 0 0 1-.841-1.225c-.155-.375-.337-.94-.387-1.98-.055-1.123-.066-1.46-.066-4.306 0-2.847.012-3.183.066-4.308.05-1.039.234-1.603.387-1.979.204-.498.448-.853.841-1.226a3.492 3.492 0 0 1 1.294-.797c.396-.147.993-.32 2.09-.367 1.185-.052 1.542-.062 4.544-.062 3.003 0 3.36.011 4.547.062 1.097.047 1.692.222 2.089.367.525.193.9.424 1.294.797.394.373.637.728.841 1.226.155.375.338.94.387 1.98.055 1.124.066 1.46.066 4.307 0 2.846-.01 3.183-.066 4.307-.05 1.04-.233 1.604-.387 1.98a3.291 3.291 0 0 1-.841 1.224 3.522 3.522 0 0 1-1.294.798c-.396.146-.992.319-2.09.366-1.185.052-1.541.062-4.546.062-3.004 0-3.359-.01-4.544-.062zm-.094-19.27c-1.197.052-2.016.232-2.73.496a5.559 5.559 0 0 0-1.993 1.23 5.188 5.188 0 0 0-1.298 1.887c-.278.678-.468 1.453-.522 2.587-.056 1.137-.069 1.5-.069 4.394 0 2.895.013 3.258.069 4.395.054 1.135.244 1.91.522 2.587a5.19 5.19 0 0 0 1.298 1.888 5.573 5.573 0 0 0 1.993 1.23c.716.263 1.533.443 2.73.495 1.2.051 1.583.064 4.638.064 3.056 0 3.44-.012 4.639-.064 1.197-.052 2.015-.232 2.73-.496a5.573 5.573 0 0 0 1.993-1.229 5.203 5.203 0 0 0 1.298-1.888c.278-.678.469-1.453.522-2.587.055-1.137.068-1.5.068-4.395 0-2.894-.013-3.257-.068-4.394-.054-1.135-.244-1.91-.522-2.587a5.222 5.222 0 0 0-1.298-1.888 5.545 5.545 0 0 0-1.992-1.23c-.716-.263-1.534-.444-2.73-.494-1.2-.052-1.584-.065-4.639-.065s-3.439.012-4.639.065z"
        fill="#fff"></path>
    </symbol>
    <symbol viewBox="0 0 36 35" fill="none" xmlns="http://www.w3.org/2000/svg" id="YouTube">
        <rect width="36" height="34.107" rx="17.053" fill="#E60808"></rect>
        <path fill-rule="evenodd" clip-rule="evenodd" d="M26.803 10.047c.964.246 1.724.966 1.984 1.88.481 1.667.463 5.144.463 5.144s0 3.46-.463 5.127c-.26.913-1.02 1.633-1.983 1.88-1.761.438-8.804.438-8.804.438s-7.024 0-8.804-.456c-.963-.246-1.723-.966-1.983-1.88-.463-1.65-.463-5.127-.463-5.127s0-3.459.463-5.127c.26-.913 1.038-1.65 1.983-1.896C10.957 9.59 18 9.59 18 9.59s7.043 0 8.803.457zm-5.189 7.006l-5.857 3.196v-6.391l5.857 3.195z"
        fill="#fff"></path>
    </symbol>
    <symbol viewBox="0 0 10 10" fill="none" xmlns="http://www.w3.org/2000/svg" id="close">
        <path d="M5.552 5L9.886.667a.39.39 0 0 0-.553-.553L5 4.448.667.114a.39.39 0 1 0-.553.553L4.448 5 .114 9.333a.39.39 0 1 0 .553.553L5 5.552l4.333 4.334a.39.39 0 0 0 .553 0 .39.39 0 0 0 0-.553L5.552 5z" fill="#BEBEBE" fill-opacity=".9"></path>
    </symbol>
    <symbol viewBox="0 0 72 19" fill="none" xmlns="http://www.w3.org/2000/svg" id="logo-svg">
    <path d="M72 14.311H46.584v4.246H72V14.31z" fill="#F7D631"></path>
    <path d="M48.412 17.608l.458-.76-.982-1.448v-.089h.832l.553.874h.018l.515-.874h.808v.091l-1.385 2.279h-.805l-.012-.073zm6.168.065h-.76v-1.81h-.895v1.81h-.764v-2.362h2.426l-.006 2.362zm.568-1.182c0-1.638 2.991-1.638 2.991 0s-2.99 1.64-2.99 0zm2.23 0a.493.493 0 0 0-.04-.239.59.59 0 0 0-.156-.206.754.754 0 0 0-.243-.14.883.883 0 0 0-.583 0 .753.753 0 0 0-.244.14.589.589 0 0 0-.155.206.493.493 0 0 0-.041.24.493.493 0 0 0 .041.239.589.589 0 0 0 .155.206.75.75 0 0 0 .244.139.88.88 0 0 0 .583 0 .752.752 0 0 0 .243-.14.59.59 0 0 0 .155-.205.493.493 0 0 0 .041-.24zm1.688 1.182h-.73v-.083l1.313-2.312h.312l1.316 2.312v.088h-.73l-.748-1.387-.733 1.382zm2.186-1.827v-.535h2.168v.542h-.711v1.828h-.74v-1.828l-.717-.007zm4.148 1.529h-1.15l-.169.298h-.74v-.083l1.314-2.312h.312l1.316 2.312v.088h-.73l-.153-.303zm-.577-1.14l-.33.623h.667l-.337-.623zm3.777.205a.594.594 0 0 1 .267.199.433.433 0 0 1 .086.285c.01.1-.007.2-.049.295a.7.7 0 0 1-.194.253.903.903 0 0 1-.306.164 1.049 1.049 0 0 1-.362.047h-1.366v-2.372h1.248a1.09 1.09 0 0 1 .347.053c.11.036.211.09.296.157a.742.742 0 0 1 .198.238c.046.09.07.185.07.282a.473.473 0 0 1-.067.22.586.586 0 0 1-.168.18zm-1.203-.595v.383h.47a.259.259 0 0 0 .15-.063.174.174 0 0 0 .06-.128.174.174 0 0 0-.06-.128.259.259 0 0 0-.15-.064h-.47zm0 .887v.402h.595c.312 0 .296-.402 0-.402h-.596zm3.374.41v.531h-1.478v-.531h.37v-1.31h-.342v-.52h1.422v.529h-.352v1.308l.38-.007zM11.097 2.521v7.532h2.399c.104 0 .208-.007.311-.02a.524.524 0 0 0 .284-.137.818.818 0 0 0 .14-.544V2.516h3.987v8.52a2.007 2.007 0 0 1-.088.551 1.077 1.077 0 0 1-.405.552 1.975 1.975 0 0 1-.6.286c-.271.08-.558.118-.847.114H1.943a2.725 2.725 0 0 1-.892-.121 1.86 1.86 0 0 1-.54-.279 1.074 1.074 0 0 1-.42-.537A1.968 1.968 0 0 1 0 11.035V2.521h3.99v6.836a.818.818 0 0 0 .14.544c.07.071.17.12.28.137.103.013.208.02.312.02h2.402V2.521h3.973zm31.023 9.902l1.978-2.848-4.94-7.175h4.444l2.577 4.268L48.773 2.4h4.339l-6.65 10.023h-4.341zm14.46 0V10.6h-1.934v1.823h-2.183V7.64h2.183v1.678h1.934V7.64h2.183v4.783H56.58zm7.015-4.783c.31-.007.619.038.907.132.203.067.389.163.55.284.116.094.214.202.29.321a1.591 1.591 0 0 1 .249.704c0 .116.015.223.015.319v2.005a1.8 1.8 0 0 1-.043.393.71.71 0 0 1-.244.374.913.913 0 0 1-.48.215 3.65 3.65 0 0 1-.52.036H60.85a4.22 4.22 0 0 1-.562-.036 1.046 1.046 0 0 1-.517-.215 1.003 1.003 0 0 1-.265-.299 1.298 1.298 0 0 1-.147-.356 2.514 2.514 0 0 1-.056-.365v-.324c0-.096 0-.21.016-.322.011-.11.034-.22.068-.329a.996.996 0 0 1 .15-.306.873.873 0 0 1 .278-.253c.149-.098.328-.16.517-.18a4.64 4.64 0 0 1 .527-.028h2.58v-.073a.69.69 0 0 0-.02-.147.307.307 0 0 0-.093-.167.442.442 0 0 0-.135-.107.541.541 0 0 0-.177-.055 2.209 2.209 0 0 0-.355-.028h-2.966V7.64h3.902zm-1.713 2.907c-.05.001-.1.005-.15.012a.425.425 0 0 0-.17.069.2.2 0 0 0-.073.104.421.421 0 0 0-.018.121c0 .037.006.074.018.109a.197.197 0 0 0 .072.099c.04.03.088.052.14.063a.7.7 0 0 0 .16.018h1.135c.059.004.118.004.177 0a.351.351 0 0 0 .144-.05.199.199 0 0 0 .06-.046.157.157 0 0 0 .034-.061.46.46 0 0 0 .018-.127v-.299l-1.547-.012zm6.581 1.876a4.8 4.8 0 0 1-.415-.018 2.963 2.963 0 0 1-.474-.076 2.273 2.273 0 0 1-.477-.172 1.666 1.666 0 0 1-.433-.301 1.413 1.413 0 0 1-.434-.76 5.06 5.06 0 0 1-.09-.992c0-.175 0-.352.018-.53a2.422 2.422 0 0 1 .278-1.004 1.41 1.41 0 0 1 .362-.426 1.87 1.87 0 0 1 .795-.392c.32-.071.65-.106.982-.104h3.17v1.21h-2.159a2.087 2.087 0 0 0-.471.046.976.976 0 0 0-.312.126.674.674 0 0 0-.206.185.897.897 0 0 0-.124.22 1.389 1.389 0 0 0-.079.3 2.73 2.73 0 0 0-.021.333c-.011.199.012.397.068.59.028.082.064.162.11.238.06.086.147.157.252.205.098.043.203.075.312.094.103.017.207.027.312.028h2.445v1.207l-3.409-.007z"
      fill="#363636"></path>
    <path d="M29.159 14.795c5.033 0 9.113-3.312 9.113-7.398C38.272 3.312 34.192 0 29.16 0c-5.034 0-9.114 3.312-9.114 7.397 0 4.086 4.08 7.398 9.114 7.398z" fill="#F7D631"></path>
    <path d="M35.075 9.235l-4.678-1.853 4.653-1.876.758-.309-.075-.131a3.985 3.985 0 0 0-.218-.357l-.084-.13c-.761-1.073-1.938-1.912-3.347-2.386a8.427 8.427 0 0 0-4.446-.236c-1.473.322-2.774 1.03-3.7 2.014-.926.984-1.426 2.188-1.421 3.427.005 1.238.514 2.44 1.448 3.42.934.979 2.24 1.68 3.716 1.994a8.424 8.424 0 0 0 4.444-.259c1.405-.481 2.575-1.327 3.328-2.404l.084-.129a3.84 3.84 0 0 0 .215-.357l.075-.134-.752-.294zm-.38.618c-.668.937-1.697 1.67-2.93 2.084a7.39 7.39 0 0 1-3.885.208c-1.288-.279-2.427-.894-3.241-1.752-.814-.857-1.258-1.908-1.262-2.99-.004-1.083.431-2.136 1.239-2.997.807-.862 1.942-1.483 3.228-1.768a7.393 7.393 0 0 1 3.887.19c1.235.407 2.27 1.135 2.945 2.068L28.488 7.39l6.207 2.463z"
      fill="#363636"></path>
    <path d="M29.059 5.615c.34 0 .614-.223.614-.498 0-.276-.275-.5-.614-.5-.34 0-.614.224-.614.5 0 .275.274.498.614.498z" fill="#363636"></path>
  </symbol>
  <symbol viewBox="0 0 12 9" fill="none" xmlns="http://www.w3.org/2000/svg" id="arrow">
    <path d="M11.99 8.678c-.04-3.336-2.916-6.053-6.494-6.174V.75a.75.75 0 0 0-.75-.75.74.74 0 0 0-.504.2S1.082 3.127.172 4.04A.646.646 0 0 0 0 4.5c0 .186.061.35.173.462.909.912 4.069 3.838 4.069 3.838.139.13.318.2.504.2a.75.75 0 0 0 .75-.75V6.503c3.597.05 5.995 1.186 5.995 2.248a.25.25 0 0 0 .26.25.25.25 0 0 0 .239-.322z"
      fill="#F7D631"></path>
  </symbol>
</svg>