<svg width="36" height="35" viewBox="0 0 36 35" fill="none" xmlns="http://www.w3.org/2000/svg">
<g id="Telegram">
<g id="Telegram_2">
<rect id="Rectangle" width="36" height="34.1071" rx="17.0535" fill="#419FD9"/>
<path id="Exclude" fill-rule="evenodd" clip-rule="evenodd" d="M22.0016 25.4981C23.2597 26.0196 23.7315 24.9269 23.7315 24.9269L27.0603 9.08356C27.0341 8.01575 25.5138 8.6614 25.5138 8.6614L6.87776 15.5898C6.87776 15.5898 5.98658 15.8878 6.06522 16.4093C6.14385 16.9308 6.85155 17.1791 6.85155 17.1791L11.5433 18.6691C11.5433 18.6691 12.9587 23.0645 13.2471 23.9088C13.5092 24.7283 13.7451 24.7531 13.7451 24.7531C14.0072 24.8524 14.2431 24.6786 14.2431 24.6786L17.2836 22.0712L22.0016 25.4981ZM22.8141 11.8896C22.8141 11.8896 23.4694 11.5171 23.4432 11.8896C23.4432 11.8896 23.548 11.9393 23.2073 12.287C22.8927 12.585 15.475 18.8925 14.479 19.7368C14.4004 19.7865 14.3479 19.861 14.3479 19.9603L14.0596 22.2946C14.0072 22.5429 13.6664 22.5678 13.5878 22.3443L12.3559 18.52C12.3035 18.371 12.3559 18.1972 12.5132 18.0979L22.8141 11.8896Z" fill="white"/>
</g>
</g>
</svg>
