<svg width="36" height="35" viewBox="0 0 36 35" fill="none" xmlns="http://www.w3.org/2000/svg">
<g id="YouTube">
<g id="YouTube_2">
<rect id="Rectangle" width="36" height="34.1071" rx="17.0535" fill="#E60808"/>
<path id="Exclude" fill-rule="evenodd" clip-rule="evenodd" d="M26.8035 10.0474C27.7672 10.2932 28.5271 11.0132 28.7866 11.9263C29.2684 13.5944 29.2499 17.0711 29.2499 17.0711C29.2499 17.0711 29.2499 20.5302 28.7866 22.1984C28.5271 23.1114 27.7672 23.8314 26.8035 24.0772C25.0428 24.5162 18 24.5162 18 24.5162C18 24.5162 10.9757 24.5162 9.19645 24.0596C8.2327 23.8138 7.47281 23.0939 7.21334 22.1808C6.75 20.5302 6.75 17.0535 6.75 17.0535C6.75 17.0535 6.75 13.5944 7.21334 11.9263C7.47281 11.0132 8.25123 10.2757 9.19645 10.0299C10.9571 9.59088 18 9.59088 18 9.59088C18 9.59088 25.0428 9.59088 26.8035 10.0474ZM21.614 17.0535L15.7574 20.2493V13.8578L21.614 17.0535Z" fill="white"/>
</g>
</g>
</svg>
